<mxfile host="Electron" modified="2023-11-17T12:12:36.830Z" agent="Mozilla/5.0 (Windows NT 10.0; Win64; x64) AppleWebKit/537.36 (KHTML, like Gecko) draw.io/22.1.2 Chrome/114.0.5735.289 Electron/25.9.4 Safari/537.36" etag="bjGeJpxYB5HS_ETMAhmF" version="22.1.2" type="device">
  <diagram name="Page-1" id="R2MvaQX-AlfxHzwUdTXZ">
    <mxGraphModel dx="2539" dy="1262" grid="1" gridSize="10" guides="1" tooltips="1" connect="1" arrows="1" fold="1" page="1" pageScale="1" pageWidth="850" pageHeight="1100" math="0" shadow="0">
      <root>
        <mxCell id="0" />
        <mxCell id="1" parent="0" />
        <mxCell id="-yU4W_w6DTY_NnUc-j4N-7" value="" style="rounded=1;whiteSpace=wrap;html=1;" vertex="1" parent="1">
          <mxGeometry x="-730" y="330" width="820" height="670" as="geometry" />
        </mxCell>
        <mxCell id="-yU4W_w6DTY_NnUc-j4N-18" style="edgeStyle=orthogonalEdgeStyle;rounded=0;orthogonalLoop=1;jettySize=auto;html=1;" edge="1" parent="1" source="zyHV_CM0H_Y1TYoFUFEd-9" target="-yU4W_w6DTY_NnUc-j4N-8">
          <mxGeometry relative="1" as="geometry" />
        </mxCell>
        <mxCell id="zyHV_CM0H_Y1TYoFUFEd-9" value="&lt;font style=&quot;font-size: 40px;&quot;&gt;Cloudflare DNS&lt;/font&gt;" style="rounded=1;whiteSpace=wrap;html=1;" parent="1" vertex="1">
          <mxGeometry x="200" y="552.5" width="310" height="155" as="geometry" />
        </mxCell>
        <mxCell id="-yU4W_w6DTY_NnUc-j4N-5" value="Docker Network" style="text;html=1;align=center;verticalAlign=middle;resizable=0;points=[];autosize=1;strokeColor=none;fillColor=none;fontSize=30;" vertex="1" parent="1">
          <mxGeometry x="-440" y="270" width="240" height="50" as="geometry" />
        </mxCell>
        <mxCell id="-yU4W_w6DTY_NnUc-j4N-9" style="edgeStyle=orthogonalEdgeStyle;rounded=0;orthogonalLoop=1;jettySize=auto;html=1;startArrow=classic;startFill=1;" edge="1" parent="1" source="-yU4W_w6DTY_NnUc-j4N-6" target="-yU4W_w6DTY_NnUc-j4N-8">
          <mxGeometry relative="1" as="geometry" />
        </mxCell>
        <mxCell id="-yU4W_w6DTY_NnUc-j4N-23" style="edgeStyle=orthogonalEdgeStyle;rounded=0;orthogonalLoop=1;jettySize=auto;html=1;" edge="1" parent="1" source="-yU4W_w6DTY_NnUc-j4N-8">
          <mxGeometry relative="1" as="geometry">
            <mxPoint x="-320" y="830" as="targetPoint" />
            <Array as="points">
              <mxPoint x="-50" y="830" />
            </Array>
          </mxGeometry>
        </mxCell>
        <mxCell id="-yU4W_w6DTY_NnUc-j4N-8" value="NGINX" style="rhombus;whiteSpace=wrap;html=1;fillColor=#60a917;fontColor=#ffffff;strokeColor=#2D7600;" vertex="1" parent="1">
          <mxGeometry x="-140" y="540" width="180" height="180" as="geometry" />
        </mxCell>
        <mxCell id="-yU4W_w6DTY_NnUc-j4N-12" value="" style="group;fillColor=#6a00ff;fontColor=#ffffff;strokeColor=#3700CC;" vertex="1" connectable="0" parent="1">
          <mxGeometry x="-660" y="720" width="340.00333333333333" height="230" as="geometry" />
        </mxCell>
        <mxCell id="-yU4W_w6DTY_NnUc-j4N-11" value="Apps" style="text;html=1;strokeColor=none;fillColor=none;align=center;verticalAlign=middle;whiteSpace=wrap;rounded=0;" vertex="1" parent="-yU4W_w6DTY_NnUc-j4N-12">
          <mxGeometry x="11.333333333333332" width="68" height="34.5" as="geometry" />
        </mxCell>
        <mxCell id="-yU4W_w6DTY_NnUc-j4N-3" value="" style="group" vertex="1" connectable="0" parent="-yU4W_w6DTY_NnUc-j4N-12">
          <mxGeometry x="10.003333333333334" y="30" width="170" height="103.49999999999999" as="geometry" />
        </mxCell>
        <mxCell id="zyHV_CM0H_Y1TYoFUFEd-2" value="Portfolio" style="rounded=1;whiteSpace=wrap;html=1;" parent="-yU4W_w6DTY_NnUc-j4N-3" vertex="1">
          <mxGeometry x="17" y="34.5" width="136" height="69" as="geometry" />
        </mxCell>
        <mxCell id="-yU4W_w6DTY_NnUc-j4N-2" value="mohammadalsmadi.com" style="text;html=1;align=center;verticalAlign=middle;resizable=0;points=[];autosize=1;strokeColor=none;fillColor=none;" vertex="1" parent="-yU4W_w6DTY_NnUc-j4N-3">
          <mxGeometry width="150" height="30" as="geometry" />
        </mxCell>
        <mxCell id="-yU4W_w6DTY_NnUc-j4N-24" value="" style="group" vertex="1" connectable="0" parent="-yU4W_w6DTY_NnUc-j4N-12">
          <mxGeometry x="170.00333333333333" y="30" width="170" height="103.49999999999999" as="geometry" />
        </mxCell>
        <mxCell id="-yU4W_w6DTY_NnUc-j4N-25" value="Grafana" style="rounded=1;whiteSpace=wrap;html=1;" vertex="1" parent="-yU4W_w6DTY_NnUc-j4N-24">
          <mxGeometry x="17" y="34.5" width="136" height="69" as="geometry" />
        </mxCell>
        <mxCell id="-yU4W_w6DTY_NnUc-j4N-26" value="log.mohammadalsmadi.com" style="text;html=1;align=center;verticalAlign=middle;resizable=0;points=[];autosize=1;strokeColor=none;fillColor=none;" vertex="1" parent="-yU4W_w6DTY_NnUc-j4N-24">
          <mxGeometry x="-10" width="170" height="30" as="geometry" />
        </mxCell>
        <mxCell id="-yU4W_w6DTY_NnUc-j4N-17" style="edgeStyle=orthogonalEdgeStyle;rounded=0;orthogonalLoop=1;jettySize=auto;html=1;" edge="1" parent="1" source="-yU4W_w6DTY_NnUc-j4N-16" target="zyHV_CM0H_Y1TYoFUFEd-9">
          <mxGeometry relative="1" as="geometry" />
        </mxCell>
        <mxCell id="-yU4W_w6DTY_NnUc-j4N-16" value="" style="html=1;verticalLabelPosition=bottom;align=center;labelBackgroundColor=#ffffff;verticalAlign=top;strokeWidth=2;strokeColor=#0080F0;shadow=0;dashed=0;shape=mxgraph.ios7.icons.user;" vertex="1" parent="1">
          <mxGeometry x="650" y="555" width="150" height="150" as="geometry" />
        </mxCell>
        <mxCell id="-yU4W_w6DTY_NnUc-j4N-22" value="" style="group" vertex="1" connectable="0" parent="1">
          <mxGeometry x="-660" y="380" width="220" height="190" as="geometry" />
        </mxCell>
        <mxCell id="-yU4W_w6DTY_NnUc-j4N-6" value="&lt;ul style=&quot;font-size: 17px;&quot;&gt;&lt;li style=&quot;font-size: 17px;&quot;&gt;my-grafana&lt;/li&gt;&lt;li style=&quot;font-size: 17px;&quot;&gt;my-prometheus&lt;/li&gt;&lt;li style=&quot;font-size: 17px;&quot;&gt;my-blackbox-exporter&lt;/li&gt;&lt;li style=&quot;font-size: 17px;&quot;&gt;my-nginx-exporter&lt;/li&gt;&lt;/ul&gt;" style="rounded=1;whiteSpace=wrap;html=1;align=left;verticalAlign=top;spacingLeft=0;spacingTop=10;fontSize=17;fillColor=#a0522d;fontColor=#ffffff;strokeColor=#6D1F00;" vertex="1" parent="-yU4W_w6DTY_NnUc-j4N-22">
          <mxGeometry y="30" width="220" height="160" as="geometry" />
        </mxCell>
        <mxCell id="-yU4W_w6DTY_NnUc-j4N-19" value="Internal Services" style="text;html=1;strokeColor=none;fillColor=none;align=center;verticalAlign=middle;whiteSpace=wrap;rounded=0;" vertex="1" parent="-yU4W_w6DTY_NnUc-j4N-22">
          <mxGeometry width="150" height="30" as="geometry" />
        </mxCell>
      </root>
    </mxGraphModel>
  </diagram>
</mxfile>
